<svg version="1.1" xmlns="http://www.w3.org/2000/svg" viewBox="0 0 1900 1660" width="5700" height="4980" filter="invert(93%) hue-rotate(180deg)">
  <!-- svg-source:excalidraw -->
  
  <defs>
    <style class="style-fonts">
      @font-face {
        font-family: "Virgil";
        src: url("https://excalidraw.com/Virgil.woff2");
      }
      @font-face {
        font-family: "Cascadia";
        src: url("https://excalidraw.com/Cascadia.woff2");
      }
    </style>
  </defs>
  <g stroke-linecap="round" transform="translate(1590 10) rotate(0 150 340)"><path d="M0 0 C63.47 0, 126.94 0, 300 0 M0 0 C118.71 0, 237.42 0, 300 0 M300 0 C300 269.11, 300 538.23, 300 680 M300 0 C300 195.13, 300 390.26, 300 680 M300 680 C238.2 680, 176.41 680, 0 680 M300 680 C214.44 680, 128.88 680, 0 680 M0 680 C0 466.25, 0 252.5, 0 0 M0 680 C0 448.7, 0 217.4, 0 0" stroke="#000000" stroke-width="1" fill="none"></path></g><g stroke-linecap="round" transform="translate(1590 10) rotate(0 150 20)"><path d="M0 0 C82.86 0, 165.73 0, 300 0 M0 0 C66.61 0, 133.23 0, 300 0 M300 0 C300 9.28, 300 18.55, 300 40 M300 0 C300 8.02, 300 16.03, 300 40 M300 40 C202.47 40, 104.94 40, 0 40 M300 40 C202.46 40, 104.92 40, 0 40 M0 40 C0 31.86, 0 23.72, 0 0 M0 40 C0 26.88, 0 13.75, 0 0" stroke="#000000" stroke-width="1" fill="none"></path></g><g transform="translate(1715.5 20.5) rotate(0 24.5 9.5)"><text x="24.5" y="15" font-family="Cascadia, Segoe UI Emoji" font-size="16px" fill="#000000" text-anchor="middle" style="white-space: pre;" direction="ltr">State</text></g><g stroke-linecap="round"><g transform="translate(1590 70) rotate(0 -30 0)"><path d="M0 0 C-10 0, -50 0, -60 0 M0 0 C-10 0, -50 0, -60 0" stroke="#000000" stroke-width="1" fill="none"></path></g></g><g transform="translate(1610 70) rotate(0 103.5 28.5)"><text x="0" y="15" font-family="Cascadia, Segoe UI Emoji" font-size="16px" fill="#000000" text-anchor="start" style="white-space: pre;" direction="ltr">sources: [SourceState]</text><text x="0" y="34" font-family="Cascadia, Segoe UI Emoji" font-size="16px" fill="#000000" text-anchor="start" style="white-space: pre;" direction="ltr">task: CompileTask</text><text x="0" y="53" font-family="Cascadia, Segoe UI Emoji" font-size="16px" fill="#000000" text-anchor="start" style="white-space: pre;" direction="ltr"></text></g><g stroke-linecap="round" transform="translate(1270 10) rotate(0 130 270)"><path d="M0 0 C97.89 0, 195.78 0, 260 0 M0 0 C95.13 0, 190.27 0, 260 0 M260 0 C260 114.68, 260 229.37, 260 540 M260 0 C260 155.08, 260 310.16, 260 540 M260 540 C189.61 540, 119.21 540, 0 540 M260 540 C194.63 540, 129.26 540, 0 540 M0 540 C0 417.14, 0 294.28, 0 0 M0 540 C0 363.26, 0 186.52, 0 0" stroke="#364fc7" stroke-width="1" fill="none"></path></g><g stroke-linecap="round" transform="translate(1270 10) rotate(0 130 20)"><path d="M0 0 C85.58 0, 171.15 0, 260 0 M0 0 C98.9 0, 197.81 0, 260 0 M260 0 C260 12.49, 260 24.97, 260 40 M260 0 C260 12.69, 260 25.37, 260 40 M260 40 C203.62 40, 147.23 40, 0 40 M260 40 C175.07 40, 90.13 40, 0 40 M0 40 C0 28.95, 0 17.9, 0 0 M0 40 C0 30.28, 0 20.56, 0 0" stroke="#364fc7" stroke-width="1" fill="none"></path></g><g transform="translate(1347.5 20.5) rotate(0 52.5 9.5)"><text x="52.5" y="15" font-family="Cascadia, Segoe UI Emoji" font-size="16px" fill="#364fc7" text-anchor="middle" style="white-space: pre;" direction="ltr">SourceState</text></g><g transform="translate(1290 70) rotate(0 99 47.5)"><text x="0" y="15" font-family="Cascadia, Segoe UI Emoji" font-size="16px" fill="#364fc7" text-anchor="start" style="white-space: pre;" direction="ltr">errors: [ParserError]</text><text x="0" y="34" font-family="Cascadia, Segoe UI Emoji" font-size="16px" fill="#364fc7" text-anchor="start" style="white-space: pre;" direction="ltr">source: Source</text><text x="0" y="53" font-family="Cascadia, Segoe UI Emoji" font-size="16px" fill="#364fc7" text-anchor="start" style="white-space: pre;" direction="ltr">valid: bool</text><text x="0" y="72" font-family="Cascadia, Segoe UI Emoji" font-size="16px" fill="#364fc7" text-anchor="start" style="white-space: pre;" direction="ltr">tokens: [Token]</text><text x="0" y="91" font-family="Cascadia, Segoe UI Emoji" font-size="16px" fill="#364fc7" text-anchor="start" style="white-space: pre;" direction="ltr">groups: [TokenGroup]</text></g><g stroke-linecap="round"><g transform="translate(1270 210) rotate(0 -30 0)"><path d="M0 0 C-10 0, -50 0, -60 0 M0 0 C-10 0, -50 0, -60 0" stroke="#364fc7" stroke-width="1" fill="none"></path></g></g><g stroke-linecap="round" transform="translate(1050 150) rotate(0 80 60)"><path d="M0 0 C36.04 0, 72.09 0, 160 0 M0 0 C61.3 0, 122.6 0, 160 0 M160 0 C160 33.28, 160 66.57, 160 120 M160 0 C160 28.46, 160 56.92, 160 120 M160 120 C109.64 120, 59.27 120, 0 120 M160 120 C122.94 120, 85.89 120, 0 120 M0 120 C0 85.51, 0 51.01, 0 0 M0 120 C0 78.09, 0 36.17, 0 0" stroke="#364fc7" stroke-width="1" fill="none"></path></g><g stroke-linecap="round" transform="translate(1050 150) rotate(0 80 20)"><path d="M0 0 C41.76 0, 83.53 0, 160 0 M0 0 C39.69 0, 79.38 0, 160 0 M160 0 C160 9.58, 160 19.15, 160 40 M160 0 C160 15.7, 160 31.4, 160 40 M160 40 C117.66 40, 75.31 40, 0 40 M160 40 C98.92 40, 37.84 40, 0 40 M0 40 C0 31.02, 0 22.03, 0 0 M0 40 C0 29.64, 0 19.29, 0 0" stroke="#364fc7" stroke-width="1" fill="none"></path></g><g transform="translate(1101 160.5) rotate(0 29 9.5)"><text x="29" y="15" font-family="Cascadia, Segoe UI Emoji" font-size="16px" fill="#364fc7" text-anchor="middle" style="white-space: pre;" direction="ltr">Source</text></g><g transform="translate(1070 210) rotate(0 57.5 19)"><text x="0" y="15" font-family="Cascadia, Segoe UI Emoji" font-size="16px" fill="#364fc7" text-anchor="start" style="white-space: pre;" direction="ltr">file: String</text><text x="0" y="34" font-family="Cascadia, Segoe UI Emoji" font-size="16px" fill="#364fc7" text-anchor="start" style="white-space: pre;" direction="ltr">text: String</text></g><g stroke-linecap="round"><g transform="translate(1270 350) rotate(0 -30 0)"><path d="M0 0 C-10 0, -50 0, -60 0 M0 0 C-10 0, -50 0, -60 0" stroke="#364fc7" stroke-width="1" fill="none"></path></g></g><g stroke-linecap="round" transform="translate(1050 290) rotate(0 80 20)"><path d="M0 0 C53.97 0, 107.94 0, 160 0 M0 0 C51.11 0, 102.22 0, 160 0 M160 0 C160 12.08, 160 24.16, 160 40 M160 0 C160 13.51, 160 27.02, 160 40 M160 40 C104.85 40, 49.69 40, 0 40 M160 40 C123.85 40, 87.69 40, 0 40 M0 40 C0 30.69, 0 21.38, 0 0 M0 40 C0 26.05, 0 12.09, 0 0" stroke="#364fc7" stroke-width="1" fill="none"></path></g><g transform="translate(1105.5 300.5) rotate(0 24.5 9.5)"><text x="24.5" y="15" font-family="Cascadia, Segoe UI Emoji" font-size="16px" fill="#364fc7" text-anchor="middle" style="white-space: pre;" direction="ltr">Token</text></g><g stroke-linecap="round" transform="translate(1050 290) rotate(0 80 60)"><path d="M0 0 C57.62 0, 115.23 0, 160 0 M0 0 C40.04 0, 80.09 0, 160 0 M160 0 C160 46.68, 160 93.36, 160 120 M160 0 C160 43.1, 160 86.2, 160 120 M160 120 C118.61 120, 77.22 120, 0 120 M160 120 C121.75 120, 83.5 120, 0 120 M0 120 C0 95.53, 0 71.06, 0 0 M0 120 C0 75.39, 0 30.78, 0 0" stroke="#364fc7" stroke-width="1" fill="none"></path></g><g stroke-linecap="round"><g transform="translate(1270 490) rotate(0 -30 0)"><path d="M0 0 C-10 0, -50 0, -60 0 M0 0 C-10 0, -50 0, -60 0" stroke="#364fc7" stroke-width="1" fill="none"></path></g></g><g stroke-linecap="round" transform="translate(1010 430) rotate(0 100 60)"><path d="M0 0 C61.73 0, 123.45 0, 200 0 M0 0 C58.86 0, 117.72 0, 200 0 M200 0 C200 45.97, 200 91.94, 200 120 M200 0 C200 39.37, 200 78.75, 200 120 M200 120 C145.64 120, 91.27 120, 0 120 M200 120 C135.14 120, 70.28 120, 0 120 M0 120 C0 72.92, 0 25.83, 0 0 M0 120 C0 77.18, 0 34.36, 0 0" stroke="#364fc7" stroke-width="1" fill="none"></path></g><g stroke-linecap="round" transform="translate(1010 430) rotate(0 100 20)"><path d="M0 0 C73.4 0, 146.8 0, 200 0 M0 0 C43.55 0, 87.1 0, 200 0 M200 0 C200 11.38, 200 22.76, 200 40 M200 0 C200 8.76, 200 17.52, 200 40 M200 40 C137.6 40, 75.21 40, 0 40 M200 40 C159.9 40, 119.8 40, 0 40 M0 40 C0 24.16, 0 8.33, 0 0 M0 40 C0 28.2, 0 16.41, 0 0" stroke="#364fc7" stroke-width="1" fill="none"></path></g><g transform="translate(1062 440.5) rotate(0 48 9.5)"><text x="48" y="15" font-family="Cascadia, Segoe UI Emoji" font-size="16px" fill="#364fc7" text-anchor="middle" style="white-space: pre;" direction="ltr">TokenGroup</text></g><g transform="translate(1030 490) rotate(0 75.5 19)"><text x="0" y="15" font-family="Cascadia, Segoe UI Emoji" font-size="16px" fill="#364fc7" text-anchor="start" style="white-space: pre;" direction="ltr">bracket: Bracket</text><text x="0" y="34" font-family="Cascadia, Segoe UI Emoji" font-size="16px" fill="#364fc7" text-anchor="start" style="white-space: pre;" direction="ltr">tokens: [Token]</text></g><g stroke-linecap="round"><g transform="translate(1010 490) rotate(0 -30 0)"><path d="M0 0 C-10 0, -50 0, -60 0 M0 0 C-10 0, -50 0, -60 0" stroke="#364fc7" stroke-width="1" fill="none"></path></g></g><g stroke-linecap="round" transform="translate(850 430) rotate(0 50 70)"><path d="M0 0 C33.7 0, 67.41 0, 100 0 M0 0 C35.21 0, 70.42 0, 100 0 M100 0 C100 52.39, 100 104.78, 100 140 M100 0 C100 47.74, 100 95.48, 100 140 M100 140 C67.82 140, 35.63 140, 0 140 M100 140 C74.9 140, 49.81 140, 0 140 M0 140 C0 107.48, 0 74.97, 0 0 M0 140 C0 88.27, 0 36.53, 0 0" stroke="#364fc7" stroke-width="1" fill="none"></path></g><g stroke-linecap="round" transform="translate(850 430) rotate(0 50 20)"><path d="M0 0 C24.34 0, 48.68 0, 100 0 M0 0 C26.85 0, 53.69 0, 100 0 M100 0 C100 8.04, 100 16.08, 100 40 M100 0 C100 12.78, 100 25.57, 100 40 M100 40 C61.1 40, 22.2 40, 0 40 M100 40 C75.19 40, 50.39 40, 0 40 M0 40 C0 29.45, 0 18.91, 0 0 M0 40 C0 27, 0 14.01, 0 0" stroke="#364fc7" stroke-width="1" fill="none"></path></g><g transform="translate(866 440.5) rotate(0 34 9.5)"><text x="34" y="15" font-family="Cascadia, Segoe UI Emoji" font-size="16px" fill="#364fc7" text-anchor="middle" style="white-space: pre;" direction="ltr">Bracket</text></g><g transform="translate(870 490) rotate(0 28.5 28.5)"><text x="0" y="15" font-family="Cascadia, Segoe UI Emoji" font-size="16px" fill="#364fc7" text-anchor="start" style="white-space: pre;" direction="ltr">Round</text><text x="0" y="34" font-family="Cascadia, Segoe UI Emoji" font-size="16px" fill="#364fc7" text-anchor="start" style="white-space: pre;" direction="ltr">Square</text><text x="0" y="53" font-family="Cascadia, Segoe UI Emoji" font-size="16px" fill="#364fc7" text-anchor="start" style="white-space: pre;" direction="ltr">Curly</text></g><g stroke-linecap="round"><g transform="translate(1270 70) rotate(0 -30 0)"><path d="M0 0 C-10 0, -50 0, -60 0 M0 0 C-10 0, -50 0, -60 0" stroke="#364fc7" stroke-width="1" fill="none"></path></g></g><g stroke-linecap="round" transform="translate(1050 10) rotate(0 80 60)"><path d="M0 0 C35.63 0, 71.27 0, 160 0 M0 0 C34.09 0, 68.17 0, 160 0 M160 0 C160 34.02, 160 68.05, 160 120 M160 0 C160 32.38, 160 64.77, 160 120 M160 120 C107.65 120, 55.31 120, 0 120 M160 120 C127.56 120, 95.12 120, 0 120 M0 120 C0 89.84, 0 59.67, 0 0 M0 120 C0 84.78, 0 49.56, 0 0" stroke="#364fc7" stroke-width="1" fill="none"></path></g><g stroke-linecap="round" transform="translate(1050 10) rotate(0 80 20)"><path d="M0 0 C43.8 0, 87.6 0, 160 0 M0 0 C44.54 0, 89.09 0, 160 0 M160 0 C160 10.08, 160 20.16, 160 40 M160 0 C160 8.87, 160 17.74, 160 40 M160 40 C101.63 40, 43.26 40, 0 40 M160 40 C108.39 40, 56.77 40, 0 40 M0 40 C0 30.78, 0 21.57, 0 0 M0 40 C0 28.34, 0 16.69, 0 0" stroke="#364fc7" stroke-width="1" fill="none"></path></g><g transform="translate(1077.5 20.5) rotate(0 52.5 9.5)"><text x="52.5" y="15" font-family="Cascadia, Segoe UI Emoji" font-size="16px" fill="#364fc7" text-anchor="middle" style="white-space: pre;" direction="ltr">ParserError</text></g><g stroke-linecap="round"><g transform="translate(1590 630) rotate(0 -30 0)"><path d="M0 0 C-10 0, -50 0, -60 0 M0 0 C-10 0, -50 0, -60 0" stroke="#000000" stroke-width="1" fill="none"></path></g></g><g stroke-linecap="round" transform="translate(1230 570) rotate(0 150 370)"><path d="M0 0 C91.04 0, 182.08 0, 300 0 M0 0 C114.08 0, 228.15 0, 300 0 M300 0 C300 213.22, 300 426.44, 300 740 M300 0 C300 255.67, 300 511.34, 300 740 M300 740 C239.86 740, 179.73 740, 0 740 M300 740 C222.89 740, 145.77 740, 0 740 M0 740 C0 568.2, 0 396.4, 0 0 M0 740 C0 460.94, 0 181.88, 0 0" stroke="#5c940d" stroke-width="1" fill="none"></path></g><g stroke-linecap="round" transform="translate(1230 570) rotate(0 150 20)"><path d="M0 0 C75.66 0, 151.31 0, 300 0 M0 0 C80.19 0, 160.38 0, 300 0 M300 0 C300 9.03, 300 18.06, 300 40 M300 0 C300 15.06, 300 30.11, 300 40 M300 40 C224.84 40, 149.68 40, 0 40 M300 40 C239.62 40, 179.24 40, 0 40 M0 40 C0 26.34, 0 12.68, 0 0 M0 40 C0 29.92, 0 19.84, 0 0" stroke="#5c940d" stroke-width="1" fill="none"></path></g><g transform="translate(1327.5 580.5) rotate(0 52.5 9.5)"><text x="52.5" y="15" font-family="Cascadia, Segoe UI Emoji" font-size="16px" fill="#5c940d" text-anchor="middle" style="white-space: pre;" direction="ltr">CompileTask</text></g><g transform="translate(1250 630) rotate(0 132 47.5)"><text x="0" y="15" font-family="Cascadia, Segoe UI Emoji" font-size="16px" fill="#5c940d" text-anchor="start" style="white-space: pre;" direction="ltr">errors: [CompileError]</text><text x="0" y="34" font-family="Cascadia, Segoe UI Emoji" font-size="16px" fill="#5c940d" text-anchor="start" style="white-space: pre;" direction="ltr">root_package: Package</text><text x="0" y="53" font-family="Cascadia, Segoe UI Emoji" font-size="16px" fill="#5c940d" text-anchor="start" style="white-space: pre;" direction="ltr">functions: [Function]</text><text x="0" y="72" font-family="Cascadia, Segoe UI Emoji" font-size="16px" fill="#5c940d" text-anchor="start" style="white-space: pre;" direction="ltr">resolved: [ResolvedFunction]</text><text x="0" y="91" font-family="Cascadia, Segoe UI Emoji" font-size="16px" fill="#5c940d" text-anchor="start" style="white-space: pre;" direction="ltr">bytecode: ByteCode</text></g><g stroke-linecap="round"><g transform="translate(1230 770) rotate(0 -30 0)"><path d="M0 0 C-10 0, -50 0, -60 0 M0 0 C-10 0, -50 0, -60 0" stroke="#5c940d" stroke-width="1" fill="none"></path></g></g><g stroke-linecap="round" transform="translate(810 710) rotate(0 180 60)"><path d="M0 0 C103.12 0, 206.25 0, 360 0 M0 0 C86.11 0, 172.22 0, 360 0 M360 0 C360 27.98, 360 55.97, 360 120 M360 0 C360 27.02, 360 54.03, 360 120 M360 120 C222.87 120, 85.73 120, 0 120 M360 120 C245.45 120, 130.91 120, 0 120 M0 120 C0 80.25, 0 40.5, 0 0 M0 120 C0 95.5, 0 70.99, 0 0" stroke="#5c940d" stroke-width="1" fill="none"></path></g><g stroke-linecap="round" transform="translate(810 710) rotate(0 180 20)"><path d="M0 0 C100.3 0, 200.6 0, 360 0 M0 0 C107.12 0, 214.24 0, 360 0 M360 0 C360 11.01, 360 22.02, 360 40 M360 0 C360 8.96, 360 17.93, 360 40 M360 40 C287.73 40, 215.47 40, 0 40 M360 40 C221.87 40, 83.74 40, 0 40 M0 40 C0 26.5, 0 13, 0 0 M0 40 C0 30.31, 0 20.63, 0 0" stroke="#5c940d" stroke-width="1" fill="none"></path></g><g transform="translate(956 720.5) rotate(0 34 9.5)"><text x="34" y="15" font-family="Cascadia, Segoe UI Emoji" font-size="16px" fill="#5c940d" text-anchor="middle" style="white-space: pre;" direction="ltr">Package</text></g><g transform="translate(830 770) rotate(0 160.5 19)"><text x="0" y="15" font-family="Cascadia, Segoe UI Emoji" font-size="16px" fill="#5c940d" text-anchor="start" style="white-space: pre;" direction="ltr">packages: Map&lt;String, Package&gt;</text><text x="0" y="34" font-family="Cascadia, Segoe UI Emoji" font-size="16px" fill="#5c940d" text-anchor="start" style="white-space: pre;" direction="ltr">functions: Map&lt;String, Overloader&gt;</text></g><g stroke-linecap="round"><g transform="translate(810 770) rotate(0 -30 0)"><path d="M0 0 C-10 0, -50 0, -60 0 M0 0 C-10 0, -50 0, -60 0" stroke="#5c940d" stroke-width="1" fill="none"></path></g></g><g stroke-linecap="round" transform="translate(610 710) rotate(0 70 60)"><path d="M0 0 C32.04 0, 64.07 0, 140 0 M0 0 C43.61 0, 87.22 0, 140 0 M140 0 C140 46.14, 140 92.28, 140 120 M140 0 C140 39.73, 140 79.47, 140 120 M140 120 C95.25 120, 50.5 120, 0 120 M140 120 C93.54 120, 47.08 120, 0 120 M0 120 C0 74.96, 0 29.93, 0 0 M0 120 C0 87.74, 0 55.47, 0 0" stroke="#5c940d" stroke-width="1" fill="none"></path></g><g stroke-linecap="round" transform="translate(610 710) rotate(0 70 20)"><path d="M0 0 C42.49 0, 84.99 0, 140 0 M0 0 C34.05 0, 68.1 0, 140 0 M140 0 C140 13.77, 140 27.54, 140 40 M140 0 C140 9.36, 140 18.72, 140 40 M140 40 C103.26 40, 66.53 40, 0 40 M140 40 C93.24 40, 46.48 40, 0 40 M0 40 C0 27.88, 0 15.75, 0 0 M0 40 C0 24.72, 0 9.45, 0 0" stroke="#5c940d" stroke-width="1" fill="none"></path></g><g transform="translate(632 720.5) rotate(0 48 9.5)"><text x="48" y="15" font-family="Cascadia, Segoe UI Emoji" font-size="16px" fill="#5c940d" text-anchor="middle" style="white-space: pre;" direction="ltr">Overloader</text></g><g transform="translate(630 770) rotate(0 52.5 9.5)"><text x="0" y="15" font-family="Cascadia, Segoe UI Emoji" font-size="16px" fill="#5c940d" text-anchor="start" style="white-space: pre;" direction="ltr">[Signature]</text></g><g stroke-linecap="round"><g transform="translate(1230 630) rotate(0 -30 0)"><path d="M0 0 C-10 0, -50 0, -60 0 M0 0 C-10 0, -50 0, -60 0" stroke="#5c940d" stroke-width="1" fill="none"></path></g></g><g stroke-linecap="round" transform="translate(1010 570) rotate(0 80 60)"><path d="M0 0 C34.59 0, 69.17 0, 160 0 M0 0 C43.82 0, 87.63 0, 160 0 M160 0 C160 38.89, 160 77.77, 160 120 M160 0 C160 41.15, 160 82.31, 160 120 M160 120 C98.78 120, 37.56 120, 0 120 M160 120 C103.37 120, 46.73 120, 0 120 M0 120 C0 95.23, 0 70.46, 0 0 M0 120 C0 82.37, 0 44.74, 0 0" stroke="#5c940d" stroke-width="1" fill="none"></path></g><g stroke-linecap="round" transform="translate(1010 570) rotate(0 80 20)"><path d="M0 0 C35.37 0, 70.75 0, 160 0 M0 0 C47.15 0, 94.3 0, 160 0 M160 0 C160 11.05, 160 22.11, 160 40 M160 0 C160 9.27, 160 18.54, 160 40 M160 40 C115.19 40, 70.39 40, 0 40 M160 40 C98.9 40, 37.8 40, 0 40 M0 40 C0 27.36, 0 14.73, 0 0 M0 40 C0 30.17, 0 20.34, 0 0" stroke="#5c940d" stroke-width="1" fill="none"></path></g><g transform="translate(1032.5 580.5) rotate(0 57.5 9.5)"><text x="57.5" y="15" font-family="Cascadia, Segoe UI Emoji" font-size="16px" fill="#5c940d" text-anchor="middle" style="white-space: pre;" direction="ltr">CompileError</text></g><g stroke-linecap="round"><g transform="translate(1230 910) rotate(0 -30 0)"><path d="M0 0 C-10 0, -50 0, -60 0 M0 0 C-10 0, -50 0, -60 0" stroke="#5c940d" stroke-width="1" fill="none"></path></g></g><g stroke-linecap="round" transform="translate(870 850) rotate(0 150 90)"><path d="M0 0 C93.43 0, 186.86 0, 300 0 M0 0 C89.22 0, 178.45 0, 300 0 M300 0 C300 67.6, 300 135.21, 300 180 M300 0 C300 66.64, 300 133.29, 300 180 M300 180 C198.49 180, 96.97 180, 0 180 M300 180 C198 180, 95.99 180, 0 180 M0 180 C0 139.24, 0 98.49, 0 0 M0 180 C0 131.83, 0 83.66, 0 0" stroke="#5c940d" stroke-width="1" fill="none"></path></g><g stroke-linecap="round" transform="translate(870 850) rotate(0 150 20)"><path d="M0 0 C108.77 0, 217.55 0, 300 0 M0 0 C78.22 0, 156.44 0, 300 0 M300 0 C300 11.02, 300 22.03, 300 40 M300 0 C300 15.31, 300 30.61, 300 40 M300 40 C234.53 40, 169.05 40, 0 40 M300 40 C229.88 40, 159.76 40, 0 40 M0 40 C0 29.59, 0 19.18, 0 0 M0 40 C0 24.37, 0 8.73, 0 0" stroke="#5c940d" stroke-width="1" fill="none"></path></g><g transform="translate(981.5 860.5) rotate(0 38.5 9.5)"><text x="38.5" y="15" font-family="Cascadia, Segoe UI Emoji" font-size="16px" fill="#5c940d" text-anchor="middle" style="white-space: pre;" direction="ltr">Function</text></g><g stroke-linecap="round"><g transform="translate(1230 1110) rotate(0 -30 0)"><path d="M0 0 C-10 0, -50 0, -60 0 M0 0 C-10 0, -50 0, -60 0" stroke="#5c940d" stroke-width="1" fill="none"></path></g></g><g stroke-linecap="round" transform="translate(910 1050) rotate(0 130 60)"><path d="M0 0 C77.85 0, 155.7 0, 260 0 M0 0 C70.01 0, 140.01 0, 260 0 M260 0 C260 39.14, 260 78.27, 260 120 M260 0 C260 47.57, 260 95.14, 260 120 M260 120 C206.73 120, 153.46 120, 0 120 M260 120 C199.22 120, 138.44 120, 0 120 M0 120 C0 94.12, 0 68.23, 0 0 M0 120 C0 74.66, 0 29.31, 0 0" stroke="#5c940d" stroke-width="1" fill="none"></path></g><g stroke-linecap="round" transform="translate(910 1050) rotate(0 130 20)"><path d="M0 0 C54.21 0, 108.43 0, 260 0 M0 0 C99.27 0, 198.53 0, 260 0 M260 0 C260 8.24, 260 16.49, 260 40 M260 0 C260 15.33, 260 30.67, 260 40 M260 40 C201.44 40, 142.88 40, 0 40 M260 40 C198.39 40, 136.77 40, 0 40 M0 40 C0 26.41, 0 12.83, 0 0 M0 40 C0 29.59, 0 19.18, 0 0" stroke="#5c940d" stroke-width="1" fill="none"></path></g><g transform="translate(964 1060.5) rotate(0 76 9.5)"><text x="76" y="15" font-family="Cascadia, Segoe UI Emoji" font-size="16px" fill="#5c940d" text-anchor="middle" style="white-space: pre;" direction="ltr">ResolvedFunciton</text></g><g stroke-linecap="round" transform="translate(950 1190) rotate(0 110 60)"><path d="M0 0 C72.67 0, 145.34 0, 220 0 M0 0 C86.09 0, 172.18 0, 220 0 M220 0 C220 29.95, 220 59.89, 220 120 M220 0 C220 34.59, 220 69.18, 220 120 M220 120 C149.99 120, 79.98 120, 0 120 M220 120 C161.95 120, 103.91 120, 0 120 M0 120 C0 91.94, 0 63.89, 0 0 M0 120 C0 76.65, 0 33.3, 0 0" stroke="#5c940d" stroke-width="1" fill="none"></path></g><g stroke-linecap="round" transform="translate(950 1190) rotate(0 110 20)"><path d="M0 0 C45.74 0, 91.48 0, 220 0 M0 0 C80.21 0, 160.42 0, 220 0 M220 0 C220 9.73, 220 19.46, 220 40 M220 0 C220 13.33, 220 26.66, 220 40 M220 40 C142.08 40, 64.16 40, 0 40 M220 40 C160.82 40, 101.65 40, 0 40 M0 40 C0 31.43, 0 22.86, 0 0 M0 40 C0 29.96, 0 19.93, 0 0" stroke="#5c940d" stroke-width="1" fill="none"></path></g><g transform="translate(1021.5 1200.5) rotate(0 38.5 9.5)"><text x="38.5" y="15" font-family="Cascadia, Segoe UI Emoji" font-size="16px" fill="#5c940d" text-anchor="middle" style="white-space: pre;" direction="ltr">ByteCode</text></g><g transform="translate(890 910) rotate(0 127 38)"><text x="0" y="15" font-family="Cascadia, Segoe UI Emoji" font-size="16px" fill="#5c940d" text-anchor="start" style="white-space: pre;" direction="ltr">name: String</text><text x="0" y="34" font-family="Cascadia, Segoe UI Emoji" font-size="16px" fill="#5c940d" text-anchor="start" style="white-space: pre;" direction="ltr">return_type: Type</text><text x="0" y="53" font-family="Cascadia, Segoe UI Emoji" font-size="16px" fill="#5c940d" text-anchor="start" style="white-space: pre;" direction="ltr">arguments: [(String, Type)]</text><text x="0" y="72" font-family="Cascadia, Segoe UI Emoji" font-size="16px" fill="#5c940d" text-anchor="start" style="white-space: pre;" direction="ltr">code: Expression</text></g><g stroke-linecap="round"><g transform="translate(870 910) rotate(0 -380 30)"><path d="M0 0 C-210.87 0, -421.73 0, -640 0 M0 0 C-218.61 0, -437.22 0, -640 0 M-640 0 C-640 12.73, -640 25.46, -640 60 M-640 0 C-640 15.84, -640 31.69, -640 60 M-640 60 C-685.48 60, -730.97 60, -760 60 M-640 60 C-679.33 60, -718.67 60, -760 60" stroke="#5c940d" stroke-width="1" fill="none"></path></g></g><g stroke-linecap="round" transform="translate(10 850) rotate(0 50 120)"><path d="M0 0 C39.44 0, 78.87 0, 100 0 M0 0 C32.85 0, 65.71 0, 100 0 M100 0 C100 72.32, 100 144.64, 100 240 M100 0 C100 48.66, 100 97.33, 100 240 M100 240 C67.93 240, 35.87 240, 0 240 M100 240 C67.1 240, 34.21 240, 0 240 M0 240 C0 191.6, 0 143.19, 0 0 M0 240 C0 189.02, 0 138.04, 0 0" stroke="#5c940d" stroke-width="1" fill="none"></path></g><g stroke-linecap="round" transform="translate(10 850) rotate(0 50 20)"><path d="M0 0 C37.61 0, 75.22 0, 100 0 M0 0 C35.8 0, 71.61 0, 100 0 M100 0 C100 10.14, 100 20.29, 100 40 M100 0 C100 9.51, 100 19.02, 100 40 M100 40 C74.03 40, 48.05 40, 0 40 M100 40 C70.18 40, 40.36 40, 0 40 M0 40 C0 27.64, 0 15.27, 0 0 M0 40 C0 30.75, 0 21.51, 0 0" stroke="#5c940d" stroke-width="1" fill="none"></path></g><g transform="translate(40 860.5) rotate(0 20 9.5)"><text x="20" y="15" font-family="Cascadia, Segoe UI Emoji" font-size="16px" fill="#5c940d" text-anchor="middle" style="white-space: pre;" direction="ltr">Type</text></g><g transform="translate(30 910) rotate(0 28.5 66.5)"><text x="0" y="15" font-family="Cascadia, Segoe UI Emoji" font-size="16px" fill="#5c940d" text-anchor="start" style="white-space: pre;" direction="ltr">Unit</text><text x="0" y="34" font-family="Cascadia, Segoe UI Emoji" font-size="16px" fill="#5c940d" text-anchor="start" style="white-space: pre;" direction="ltr">Int</text><text x="0" y="53" font-family="Cascadia, Segoe UI Emoji" font-size="16px" fill="#5c940d" text-anchor="start" style="white-space: pre;" direction="ltr">Float</text><text x="0" y="72" font-family="Cascadia, Segoe UI Emoji" font-size="16px" fill="#5c940d" text-anchor="start" style="white-space: pre;" direction="ltr">String</text><text x="0" y="91" font-family="Cascadia, Segoe UI Emoji" font-size="16px" fill="#5c940d" text-anchor="start" style="white-space: pre;" direction="ltr">Atom</text><text x="0" y="110" font-family="Cascadia, Segoe UI Emoji" font-size="16px" fill="#5c940d" text-anchor="start" style="white-space: pre;" direction="ltr">List</text><text x="0" y="129" font-family="Cascadia, Segoe UI Emoji" font-size="16px" fill="#5c940d" text-anchor="start" style="white-space: pre;" direction="ltr">Map</text></g><g stroke-linecap="round"><g transform="translate(870 970) rotate(0 -80 30)"><path d="M0 0 C-36.31 0, -72.63 0, -100 0 M0 0 C-34.27 0, -68.53 0, -100 0 M-100 0 C-100 14.96, -100 29.92, -100 60 M-100 0 C-100 19.45, -100 38.91, -100 60 M-100 60 C-112.55 60, -125.09 60, -160 60 M-100 60 C-118.12 60, -136.25 60, -160 60" stroke="#5c940d" stroke-width="1" fill="none"></path></g></g><g stroke-linecap="round" transform="translate(410 970) rotate(0 150 120)"><path d="M0 0 C66.58 0, 133.17 0, 300 0 M0 0 C66.19 0, 132.37 0, 300 0 M300 0 C300 72.3, 300 144.6, 300 240 M300 0 C300 53.54, 300 107.08, 300 240 M300 240 C195.74 240, 91.49 240, 0 240 M300 240 C188.04 240, 76.08 240, 0 240 M0 240 C0 180.35, 0 120.7, 0 0 M0 240 C0 183.68, 0 127.36, 0 0" stroke="#5c940d" stroke-width="1" fill="none"></path></g><g stroke-linecap="round" transform="translate(410 970) rotate(0 150 20)"><path d="M0 0 C64.66 0, 129.32 0, 300 0 M0 0 C75.31 0, 150.63 0, 300 0 M300 0 C300 14.75, 300 29.51, 300 40 M300 0 C300 8.82, 300 17.64, 300 40 M300 40 C217.61 40, 135.22 40, 0 40 M300 40 C209.67 40, 119.34 40, 0 40 M0 40 C0 28.56, 0 17.12, 0 0 M0 40 C0 27.91, 0 15.83, 0 0" stroke="#5c940d" stroke-width="1" fill="none"></path></g><g transform="translate(512 980.5) rotate(0 48 9.5)"><text x="48" y="15" font-family="Cascadia, Segoe UI Emoji" font-size="16px" fill="#5c940d" text-anchor="middle" style="white-space: pre;" direction="ltr">Expression</text></g><g transform="translate(430 1030) rotate(0 132.5 76)"><text x="0" y="15" font-family="Cascadia, Segoe UI Emoji" font-size="16px" fill="#5c940d" text-anchor="start" style="white-space: pre;" direction="ltr">Unit</text><text x="0" y="34" font-family="Cascadia, Segoe UI Emoji" font-size="16px" fill="#5c940d" text-anchor="start" style="white-space: pre;" direction="ltr">Int(i64)</text><text x="0" y="53" font-family="Cascadia, Segoe UI Emoji" font-size="16px" fill="#5c940d" text-anchor="start" style="white-space: pre;" direction="ltr">Float(f64)</text><text x="0" y="72" font-family="Cascadia, Segoe UI Emoji" font-size="16px" fill="#5c940d" text-anchor="start" style="white-space: pre;" direction="ltr">String(String)</text><text x="0" y="91" font-family="Cascadia, Segoe UI Emoji" font-size="16px" fill="#5c940d" text-anchor="start" style="white-space: pre;" direction="ltr">Atom(String)</text><text x="0" y="110" font-family="Cascadia, Segoe UI Emoji" font-size="16px" fill="#5c940d" text-anchor="start" style="white-space: pre;" direction="ltr">List([Expression])</text><text x="0" y="129" font-family="Cascadia, Segoe UI Emoji" font-size="16px" fill="#5c940d" text-anchor="start" style="white-space: pre;" direction="ltr">Map(Map&lt;String, Expression&gt;)</text><text x="0" y="148" font-family="Cascadia, Segoe UI Emoji" font-size="16px" fill="#5c940d" text-anchor="start" style="white-space: pre;" direction="ltr">Invoke(String, [Expression])</text></g><g transform="translate(930 1110) rotate(0 113.5 19)"><text x="0" y="15" font-family="Cascadia, Segoe UI Emoji" font-size="16px" fill="#5c940d" text-anchor="start" style="white-space: pre;" direction="ltr">base: Function</text><text x="0" y="34" font-family="Cascadia, Segoe UI Emoji" font-size="16px" fill="#5c940d" text-anchor="start" style="white-space: pre;" direction="ltr">code: ResolvedExpression</text></g><g stroke-linecap="round" transform="translate(390 1230) rotate(0 190 120)"><path d="M0 0 C149.3 0, 298.59 0, 380 0 M0 0 C125.69 0, 251.39 0, 380 0 M380 0 C380 66.36, 380 132.72, 380 240 M380 0 C380 60.98, 380 121.97, 380 240 M380 240 C263.15 240, 146.31 240, 0 240 M380 240 C232.4 240, 84.8 240, 0 240 M0 240 C0 144.35, 0 48.69, 0 0 M0 240 C0 190.13, 0 140.25, 0 0" stroke="#5c940d" stroke-width="1" fill="none"></path></g><g stroke-linecap="round" transform="translate(390 1230) rotate(0 190 20)"><path d="M0 0 C85.18 0, 170.37 0, 380 0 M0 0 C118.19 0, 236.38 0, 380 0 M380 0 C380 15.3, 380 30.61, 380 40 M380 0 C380 8.69, 380 17.38, 380 40 M380 40 C242.44 40, 104.88 40, 0 40 M380 40 C245.48 40, 110.97 40, 0 40 M0 40 C0 28.07, 0 16.13, 0 0 M0 40 C0 30.28, 0 20.55, 0 0" stroke="#5c940d" stroke-width="1" fill="none"></path></g><g transform="translate(494.5 1240.5) rotate(0 85.5 9.5)"><text x="85.5" y="15" font-family="Cascadia, Segoe UI Emoji" font-size="16px" fill="#5c940d" text-anchor="middle" style="white-space: pre;" direction="ltr">ResolvedExpression</text></g><g transform="translate(410 1290) rotate(0 170 76)"><text x="0" y="15" font-family="Cascadia, Segoe UI Emoji" font-size="16px" fill="#5c940d" text-anchor="start" style="white-space: pre;" direction="ltr">Unit</text><text x="0" y="34" font-family="Cascadia, Segoe UI Emoji" font-size="16px" fill="#5c940d" text-anchor="start" style="white-space: pre;" direction="ltr">Int(i64)</text><text x="0" y="53" font-family="Cascadia, Segoe UI Emoji" font-size="16px" fill="#5c940d" text-anchor="start" style="white-space: pre;" direction="ltr">Float(f64)</text><text x="0" y="72" font-family="Cascadia, Segoe UI Emoji" font-size="16px" fill="#5c940d" text-anchor="start" style="white-space: pre;" direction="ltr">String(String)</text><text x="0" y="91" font-family="Cascadia, Segoe UI Emoji" font-size="16px" fill="#5c940d" text-anchor="start" style="white-space: pre;" direction="ltr">Atom(String)</text><text x="0" y="110" font-family="Cascadia, Segoe UI Emoji" font-size="16px" fill="#5c940d" text-anchor="start" style="white-space: pre;" direction="ltr">List([ResolvedExpression])</text><text x="0" y="129" font-family="Cascadia, Segoe UI Emoji" font-size="16px" fill="#5c940d" text-anchor="start" style="white-space: pre;" direction="ltr">Map(Map&lt;String, ResolvedExpression&gt;)</text><text x="0" y="148" font-family="Cascadia, Segoe UI Emoji" font-size="16px" fill="#5c940d" text-anchor="start" style="white-space: pre;" direction="ltr">Invoke(String, [ResolvedExpression])</text></g><g stroke-linecap="round"><g transform="translate(910 1110) rotate(0 -70 90)"><path d="M0 0 C-22.23 0, -44.46 0, -80 0 M0 0 C-21.24 0, -42.49 0, -80 0 M-80 0 C-80 46.62, -80 93.23, -80 180 M-80 0 C-80 62.22, -80 124.43, -80 180 M-80 180 C-100.5 180, -120.99 180, -140 180 M-80 180 C-97.8 180, -115.6 180, -140 180" stroke="#5c940d" stroke-width="1" fill="none"></path></g></g><g transform="translate(970 1250) rotate(0 90 9.5)"><text x="0" y="15" font-family="Cascadia, Segoe UI Emoji" font-size="16px" fill="#5c940d" text-anchor="start" style="white-space: pre;" direction="ltr">sections: [Section]</text></g><g stroke-linecap="round"><g transform="translate(950 1250) rotate(0 -60 150)"><path d="M0 0 C-23.24 0, -46.48 0, -60 0 M0 0 C-14.14 0, -28.29 0, -60 0 M-60 0 C-60 104.69, -60 209.37, -60 300 M-60 0 C-60 117.61, -60 235.22, -60 300 M-60 300 C-78.42 300, -96.84 300, -120 300 M-60 300 C-80.23 300, -100.45 300, -120 300" stroke="#5c940d" stroke-width="1" fill="none"></path></g></g><g stroke-linecap="round" transform="translate(490 1490) rotate(0 170 70)"><path d="M0 0 C118.55 0, 237.1 0, 340 0 M0 0 C72.66 0, 145.31 0, 340 0 M340 0 C340 54.57, 340 109.14, 340 140 M340 0 C340 40.59, 340 81.18, 340 140 M340 140 C261.64 140, 183.27 140, 0 140 M340 140 C215.83 140, 91.67 140, 0 140 M0 140 C0 87.63, 0 35.26, 0 0 M0 140 C0 84.93, 0 29.87, 0 0" stroke="#5c940d" stroke-width="1" fill="none"></path></g><g stroke-linecap="round" transform="translate(490 1490) rotate(0 170 20)"><path d="M0 0 C127.28 0, 254.56 0, 340 0 M0 0 C93.23 0, 186.45 0, 340 0 M340 0 C340 15.31, 340 30.62, 340 40 M340 0 C340 8.2, 340 16.4, 340 40 M340 40 C211.95 40, 83.89 40, 0 40 M340 40 C241 40, 142.01 40, 0 40 M0 40 C0 29.28, 0 18.56, 0 0 M0 40 C0 24.25, 0 8.5, 0 0" stroke="#5c940d" stroke-width="1" fill="none"></path></g><g transform="translate(626 1500.5) rotate(0 34 9.5)"><text x="34" y="15" font-family="Cascadia, Segoe UI Emoji" font-size="16px" fill="#5c940d" text-anchor="middle" style="white-space: pre;" direction="ltr">Section</text></g><g transform="translate(510 1550) rotate(0 155 28.5)"><text x="0" y="15" font-family="Cascadia, Segoe UI Emoji" font-size="16px" fill="#5c940d" text-anchor="start" style="white-space: pre;" direction="ltr">StringTable([String])</text><text x="0" y="34" font-family="Cascadia, Segoe UI Emoji" font-size="16px" fill="#5c940d" text-anchor="start" style="white-space: pre;" direction="ltr">FunctionTable([CompiledFunction])</text><text x="0" y="53" font-family="Cascadia, Segoe UI Emoji" font-size="16px" fill="#5c940d" text-anchor="start" style="white-space: pre;" direction="ltr">Generic([u8])</text></g><g stroke-linecap="round"><g transform="translate(490 1550) rotate(0 -30 0)"><path d="M0 0 C-19.15 0, -38.31 0, -60 0 M0 0 C-21.28 0, -42.56 0, -60 0" stroke="#5c940d" stroke-width="1" fill="none"></path></g></g><g stroke-linecap="round" transform="translate(230 1490) rotate(0 100 80)"><path d="M0 0 C58.12 0, 116.25 0, 200 0 M0 0 C68.43 0, 136.86 0, 200 0 M200 0 C200 44.96, 200 89.91, 200 160 M200 0 C200 41.9, 200 83.79, 200 160 M200 160 C147.27 160, 94.53 160, 0 160 M200 160 C152.5 160, 105 160, 0 160 M0 160 C0 103.79, 0 47.57, 0 0 M0 160 C0 120.22, 0 80.44, 0 0" stroke="#5c940d" stroke-width="1" fill="none"></path></g><g stroke-linecap="round" transform="translate(230 1490) rotate(0 100 20)"><path d="M0 0 C73.03 0, 146.07 0, 200 0 M0 0 C79.3 0, 158.6 0, 200 0 M200 0 C200 10.94, 200 21.87, 200 40 M200 0 C200 8.74, 200 17.48, 200 40 M200 40 C131.62 40, 63.23 40, 0 40 M200 40 C126.81 40, 53.61 40, 0 40 M0 40 C0 28.49, 0 16.97, 0 0 M0 40 C0 28.81, 0 17.62, 0 0" stroke="#5c940d" stroke-width="1" fill="none"></path></g><g transform="translate(254 1500.5) rotate(0 76 9.5)"><text x="76" y="15" font-family="Cascadia, Segoe UI Emoji" font-size="16px" fill="#5c940d" text-anchor="middle" style="white-space: pre;" direction="ltr">CompiledFunction</text></g><g transform="translate(250 1550) rotate(0 80 38)"><text x="0" y="15" font-family="Cascadia, Segoe UI Emoji" font-size="16px" fill="#5c940d" text-anchor="start" style="white-space: pre;" direction="ltr">name_index: u32</text><text x="0" y="34" font-family="Cascadia, Segoe UI Emoji" font-size="16px" fill="#5c940d" text-anchor="start" style="white-space: pre;" direction="ltr">return_type: Type</text><text x="0" y="53" font-family="Cascadia, Segoe UI Emoji" font-size="16px" fill="#5c940d" text-anchor="start" style="white-space: pre;" direction="ltr">arguments: [Type]</text><text x="0" y="72" font-family="Cascadia, Segoe UI Emoji" font-size="16px" fill="#5c940d" text-anchor="start" style="white-space: pre;" direction="ltr">code: [u16]</text></g><g stroke-linecap="round"><g transform="translate(610 770) rotate(0 -30 0)"><path d="M0 0 C-15.1 0, -30.2 0, -60 0 M0 0 C-17.27 0, -34.55 0, -60 0" stroke="#5c940d" stroke-width="1" fill="none"></path></g></g><g stroke-linecap="round" transform="translate(350 710) rotate(0 100 60)"><path d="M0 0 C63.57 0, 127.14 0, 200 0 M0 0 C53.79 0, 107.57 0, 200 0 M200 0 C200 36.93, 200 73.86, 200 120 M200 0 C200 41.82, 200 83.64, 200 120 M200 120 C151.28 120, 102.56 120, 0 120 M200 120 C145.23 120, 90.47 120, 0 120 M0 120 C0 94.55, 0 69.1, 0 0 M0 120 C0 89.57, 0 59.14, 0 0" stroke="#5c940d" stroke-width="1" fill="none"></path></g><g stroke-linecap="round" transform="translate(350 710) rotate(0 100 20)"><path d="M0 0 C53.79 0, 107.57 0, 200 0 M0 0 C61.55 0, 123.1 0, 200 0 M200 0 C200 13.94, 200 27.88, 200 40 M200 0 C200 9.74, 200 19.49, 200 40 M200 40 C145.23 40, 90.47 40, 0 40 M200 40 C157.59 40, 115.17 40, 0 40 M0 40 C0 29.86, 0 19.71, 0 0 M0 40 C0 30.22, 0 20.45, 0 0" stroke="#5c940d" stroke-width="1" fill="none"></path></g><g transform="translate(407 720.5) rotate(0 43 9.5)"><text x="43" y="15" font-family="Cascadia, Segoe UI Emoji" font-size="16px" fill="#5c940d" text-anchor="middle" style="white-space: pre;" direction="ltr">Signature</text></g><g transform="translate(370 770) rotate(0 80.5 19)"><text x="0" y="15" font-family="Cascadia, Segoe UI Emoji" font-size="16px" fill="#5c940d" text-anchor="start" style="white-space: pre;" direction="ltr">return_type: Type</text><text x="0" y="34" font-family="Cascadia, Segoe UI Emoji" font-size="16px" fill="#5c940d" text-anchor="start" style="white-space: pre;" direction="ltr">arguments: [Type]</text></g><g stroke-linecap="round"><g transform="translate(350 770) rotate(0 -120 70)"><path d="M0 0 C-54.09 0, -108.17 0, -180 0 M0 0 C-50.06 0, -100.11 0, -180 0 M-180 0 C-180 48.31, -180 96.61, -180 140 M-180 0 C-180 34.12, -180 68.25, -180 140 M-180 140 C-203.85 140, -227.7 140, -240 140 M-180 140 C-199.88 140, -219.75 140, -240 140" stroke="#5c940d" stroke-width="1" fill="none"></path></g></g><g stroke-linecap="round"><g transform="translate(230 1550) rotate(0 -60 -260)"><path d="M0 0 C-16.01 0, -32.03 0, -60 0 M0 0 C-16.89 0, -33.78 0, -60 0 M-60 0 C-60 -172.1, -60 -344.2, -60 -520 M-60 0 C-60 -140.29, -60 -280.58, -60 -520 M-60 -520 C-73.27 -520, -86.54 -520, -120 -520 M-60 -520 C-74.68 -520, -89.36 -520, -120 -520" stroke="#5c940d" stroke-width="1" fill="none"></path></g></g><g stroke-linecap="round"><g transform="translate(1030 1050) rotate(0 0 -10)"><path d="M0 0 C0 -5.93, 0 -11.85, 0 -20 M0 0 C0 -7.45, 0 -14.89, 0 -20" stroke="#5c940d" stroke-width="1" fill="none"></path></g></g><g stroke-linecap="round"><g transform="translate(1230 1250) rotate(0 -30 0)"><path d="M0 0 C-20.35 0, -40.7 0, -60 0 M0 0 C-16.89 0, -33.79 0, -60 0" stroke="#5c940d" stroke-width="1" fill="none"></path></g></g></svg>